<svg xmlns="http://www.w3.org/2000/svg" id="Layer_1" data-name="Layer 1" viewBox="0 0 906.68 218.09"><rect width="906.68" height="218.09" style="fill:#ffce01"></rect><path d="M805.77,108.23h0c-.3.38-.59.75-.91,1.09-8,9.55-16.13,19.05-24.13,28.62l-2.18,2.66H740.13s9-11.16,12.84-15.72q10.71-12.7,21.39-25.43c3.72-4.43,12-14.45,12-14.45L740.13,29.66h38.35s46.1,55.08,46.13,55.49S805.77,108.23,805.77,108.23Z" style="fill:#242a59"></path><path d="M872.64,85.11c0,.41-46.09,55.49-46.09,55.49H788.17l46.24-55.34s-8.3-10-12-14.45Q811.73,58.06,801,45.38c-3.87-4.54-12.83-15.72-12.83-15.72h38.38l2.16,2.66c8,9.59,16.1,19.07,24.16,28.6.29.38.61.73.93,1.13C853.8,62.05,872.58,84.74,872.64,85.11Z" style="fill:#242a59"></path><path d="M376.44,44.2H402l-.24,58,23.47-58h25.88L453.84,102l20.1-57.78h25.52l-35.75,84.87h-29l-2.53-52.13L411,129.07H382Z" style="fill:#242a59"></path><path d="M30.59,44.2h27l9.15,32.87L87.41,44.2H114L73.93,102.1l-4.82,27H45.52l4.69-27Z" style="fill:#242a59"></path><path d="M169.53,62.86h-30.7l-2.4,14.08h27.08l-3.25,17.94H133.18l-2.77,15.41H161.1l-3.25,18.78H103.44l15-84.87h54.29Z" style="fill:#242a59"></path><path d="M208.05,44.2l-11.68,66.93h26.37l-3.25,17.94H169.41L184.46,44.2Z" style="fill:#242a59"></path><path d="M267.16,44.2l-11.68,66.93h26.36l-3.25,17.94H228.51L243.56,44.2Z" style="fill:#242a59"></path><path d="M321.14,129.91c-21.78,0-36-14.45-36-35.51,0-30.46,20.47-51.52,50.08-51.52,22.27,0,36.35,14.2,36.35,35.27C371.58,108.36,351.12,129.91,321.14,129.91ZM324.76,108c14.68,0,23.47-12.76,23.47-27.08,0-10.11-5.66-16.25-16-16.25-14.69,0-23.72,12.51-23.72,27C308.5,101.62,314.16,108,324.76,108Z" style="fill:#242a59"></path><path d="M532.39,128.87h-42L505.43,44h40.69c17.21,0,26.36,8,24,22a23.93,23.93,0,0,1-17.81,19.26c9.75,2.29,14.44,10.83,12.63,20.46C562.49,120.08,550.69,128.87,532.39,128.87Zm1.33-34.43h-13.6L517.47,110h13.72c5.78,0,9.27-2.41,10.23-7.59S539.5,94.44,533.72,94.44Zm4-31.66H525.77l-2.65,15H535c5.78,0,9.27-2.53,10.11-7.47S543.47,62.78,537.69,62.78Z" style="fill:#242a59"></path><path d="M622,115h-30.1l-7,13.85h-24.8L605.94,44h27.2L649,128.87H624.11Zm-7-45.5L601,97.09h18.18Z" style="fill:#242a59"></path><path d="M701.18,43.16c21.42,0,34.18,11.07,34.42,28.77H710.2c-1.8-4.46-6.14-7-12.76-7-11.79,0-20.58,8.3-22.87,21.3-2.53,14.57,3.49,22.39,17.46,22.39,8.18,0,14.92-3.85,19.74-11.19H688.05l3-17h44.06L731,103.35c-7.22,12.4-22.75,26.12-44.9,26.12-26.12,0-40-17.82-35.51-43.22S675.17,43.16,701.18,43.16Z" style="fill:#242a59"></path><path d="M279.18,177.58h-4.76v10.91h-5.71V160.07h10.47c6.84,0,10.26,3.87,10.26,8.79C289.44,173.18,286.51,177.58,279.18,177.58Zm-.24-4.6c3.21,0,4.64-1.59,4.64-4.12s-1.43-4.15-4.64-4.15h-4.52V173Z" style="fill:#242a59"></path><path d="M293.47,158.36h5.7v30.13h-5.7Z" style="fill:#242a59"></path><path d="M313.63,165.56a8.93,8.93,0,0,1,7.45,3.59v-3.22h5.75v22.56h-5.75v-3.3a8.88,8.88,0,0,1-7.49,3.67c-5.7,0-10.26-4.68-10.26-11.73S307.89,165.56,313.63,165.56Zm1.47,5c-3.06,0-6,2.28-6,6.56s2.89,6.72,6,6.72,6-2.36,6-6.64S318.23,170.57,315.1,170.57Z" style="fill:#242a59"></path><path d="M348.2,176c0-3.62-2-5.58-5-5.58s-5.09,2-5.09,5.58v12.46h-5.7V165.93h5.7v2.81a8.44,8.44,0,0,1,6.8-3.13c5.26,0,9,3.42,9,9.65v13.23h-5.7Z" style="fill:#242a59"></path><path d="M369.17,188.86c-6.55,0-11.32-4.56-11.32-11.65s4.64-11.65,11.32-11.65c6.52,0,11.12,4.44,11.12,11.16a13.49,13.49,0,0,1-.16,2.2h-16.5a5.29,5.29,0,0,0,5.42,5.22,4.65,4.65,0,0,0,4.52-2.73h6.15C378.5,185.56,374.75,188.86,369.17,188.86Zm-5.49-13.77h10.71c-.08-3-2.45-4.84-5.38-4.84A5.23,5.23,0,0,0,363.68,175.09Z" style="fill:#242a59"></path><path d="M385.34,170.61h-2.69v-4.68h2.69v-5.58h5.74v5.58h5.05v4.68h-5.05v10.92c0,1.51.61,2.16,2.4,2.16h2.65v4.8h-3.58c-4.32,0-7.21-1.83-7.21-7Z" style="fill:#242a59"></path><path d="M427.36,183.08H416l-1.87,5.41h-6L418.4,160H425l10.22,28.46h-6Zm-5.66-16.46-4.11,11.9h8.23Z" style="fill:#242a59"></path><path d="M448.78,165.56c5.62,0,9.41,2.94,10.63,8h-6.15a4.43,4.43,0,0,0-4.52-3.14c-3.18,0-5.29,2.4-5.29,6.8s2.11,6.76,5.29,6.76a4.3,4.3,0,0,0,4.52-3.09h6.15c-1.22,4.8-5,8-10.63,8-6.51,0-11.16-4.56-11.16-11.65S442.27,165.56,448.78,165.56Z" style="fill:#242a59"></path><path d="M464.5,170.61h-2.69v-4.68h2.69v-5.58h5.74v5.58h5.05v4.68h-5.05v10.92c0,1.51.61,2.16,2.4,2.16h2.65v4.8h-3.58c-4.32,0-7.21-1.83-7.21-7Z" style="fill:#242a59"></path><path d="M478.79,159.9a3.51,3.51,0,1,1,3.5,3.34A3.35,3.35,0,0,1,478.79,159.9Zm.61,6h5.7v22.56h-5.7Z" style="fill:#242a59"></path><path d="M500.74,188.86c-6.51,0-11.44-4.56-11.44-11.65s5.09-11.65,11.6-11.65,11.61,4.52,11.61,11.65S507.3,188.86,500.74,188.86Zm0-5c3,0,5.91-2.2,5.91-6.68s-2.81-6.68-5.83-6.68-5.74,2.16-5.74,6.68S497.69,183.89,500.74,183.89Z" style="fill:#242a59"></path><path d="M532.5,176c0-3.62-2-5.58-5-5.58s-5.09,2-5.09,5.58v12.46h-5.7V165.93h5.7v2.81a8.45,8.45,0,0,1,6.81-3.13c5.25,0,9,3.42,9,9.65v13.23H532.5Z" style="fill:#242a59"></path><path d="M577.62,160v28.46h-5.7L559,169v19.5h-5.7V160H559l12.91,19.54V160Z" style="fill:#242a59"></path><path d="M593.26,188.86c-6.52,0-11.45-4.56-11.45-11.65s5.1-11.65,11.61-11.65S605,170.08,605,177.21,599.81,188.86,593.26,188.86Zm0-5c3,0,5.9-2.2,5.9-6.68s-2.81-6.68-5.82-6.68-5.74,2.16-5.74,6.68S590.2,183.89,593.26,183.89Z" style="fill:#242a59"></path><path d="M606.69,165.93h5.79l4,17.19,4.32-17.19h6l4.24,17.15,4-17.15h5.46l-6.6,22.56h-6.15l-4.11-15.76-4.12,15.76h-6.19Z" style="fill:#242a59"></path></svg>